<svg xmlns="http://www.w3.org/2000/svg" version="1.1" width="24" height="24" viewBox="0 0 1024 1024">
<path d="M204,832c-7.915-2.638-23.095-35.129-27.077-43.64c-72.392-154.722-52.679-352.043-3.303-510.822c12.155-39.09,23.851-89.097,53.929-118.451c61.185-59.709,232.686-66.366,314.896-63.453c72.571,2.571,195.686,11.772,251.974,61.272c36.907,32.455,50.215,98.64,62.681,144.383c38.794,142.349,53.874,292.925,9.765,435.92c-17.203,55.768-48.203,113.811-97.042,147.978c-74.689,52.25-183.074,42.892-269.872,42.945c-49.317,.03-100.786,2.023-149.47-6.808c-52.141-9.457-98.762-28.502-133.71-69.933C213.284,847.258,204,837.145,204,832Zm50-623c10.278,24.713,52.103,36.088,75.828,41.976c102.899,25.541,223.26,26.39,327.447,7.703c20.672-3.708,42.696-6.998,62.299-14.824c15.737-6.282,51.364-18.974,50.919-39.612c-.535-24.805-47.948-39.723-67.424-45.092c-117.446-32.377-293.646-33.924-408.159,9.503C278.527,174.866,250.153,187.048,254,209Zm533,51c-14.469,4.17-28.444,13.748-43,19c1.177,16.359,10.905,35.593,15.593,51.726c8.215,28.27,14.242,57.598,18.879,86.66c16.534,103.633,22.442,319.289-88.21,374.581c-57.223,28.594-130.329,20.319-192.496,20.35c-93.743,.046-182.189,7.467-228.176-92.17c-49.751-107.792-34.567-235.298-15.685-347.978C257.43,351.138,280.949,292.753,280,279c-9.328-3.74-35.054-19-43-19c-48.064,139.868-76.036,484.213,64.983,579.506c62.092,41.959,141.505,36.724,212.924,36.749c79.361,.027,164.804,4.752,226.649-53.857C857.786,712.248,836.807,398.764,787,260Z" fill="currentColor" />
</svg>
