<svg xmlns="http://www.w3.org/2000/svg" width="24" height="24" viewBox="0 0 1024 1024">
  <g fill="currentColor" fill-rule="nonzero">
    <path d="M316 168 C316 122 394 102 512 102 C630 102 708 122 708 168 C708 224 656 280 656 346 C656 452 748 512 750 656 C752 764 670 828 584 842 L608 878 Q612 906 512 906 Q412 906 416 878 L440 842 C354 828 272 764 274 656 C276 512 368 452 368 346 C368 280 316 224 316 168 Z M366 160 C366 177.6736 431.3642 192 512 192 C592.6358 192 658 177.6736 658 160 C658 142.3264 592.6358 128 512 128 C431.3642 128 366 142.3264 366 160 Z "/>
  </g>
</svg>
