<svg xmlns="http://www.w3.org/2000/svg" viewBox="0 0 64 64">
  <rect width="64" height="64" rx="14" fill="#6F4E37"/>
  <path d="M16 26 h26 v14 a10 10 0 0 1 -10 10 h-6 a10 10 0 0 1 -10 -10 z" fill="#F5E6D3"/>
  <path d="M42 30 h4 a6 6 0 0 1 0 12 h-4" fill="none" stroke="#F5E6D3" stroke-width="3"/>
  <path d="M48 14 l1.6 4 4.4 .6 -3.2 3 .8 4.4 -3.6 -2 -3.6 2 .8 -4.4 -3.2 -3 4.4 -.6 z" fill="#E5C56D"/>
  <path d="M22 14 q2 4 0 8" fill="none" stroke="#F5E6D3" stroke-width="2" stroke-linecap="round" opacity="0.7"/>
  <path d="M30 12 q2 4 0 8" fill="none" stroke="#F5E6D3" stroke-width="2" stroke-linecap="round" opacity="0.7"/>
</svg>
